<?xml version="1.0" encoding="UTF-8"?>
<svg version="1.1" xmlns="http://www.w3.org/2000/svg" width="483" height="433">
<path d="M0 0 C0.99 0.33 1.98 0.66 3 1 C2.32195312 1.69222656 1.64390625 2.38445313 0.9453125 3.09765625 C-9.84707698 14.34713517 -18.09050466 26.51521174 -24 41 C-24.37769531 41.88816406 -24.75539062 42.77632812 -25.14453125 43.69140625 C-29.41734023 54.42943932 -31.37596664 66.48374805 -32 78 C-32.05285156 78.83660156 -32.10570312 79.67320313 -32.16015625 80.53515625 C-32.63230458 95.13069817 -30.02024506 110.315471 -25 124 C-24.73832031 124.80695313 -24.47664063 125.61390625 -24.20703125 126.4453125 C-19.85998519 138.81296468 -11.43841403 150.13072446 -3 160 C-2.48953125 160.63164062 -1.9790625 161.26328125 -1.453125 161.9140625 C2.27977738 166.46980895 6.48611698 170.23188895 11 174 C11.81339844 174.70125 12.62679687 175.4025 13.46484375 176.125 C23.68506689 184.76941781 34.70741756 191.45685564 46.5 197.6875 C47.32935059 198.12690918 48.15870117 198.56631836 49.01318359 199.01904297 C60.77068455 205.11324504 72.97424012 209.8691952 85.5 214.125 C86.70269531 214.54136719 87.90539062 214.95773437 89.14453125 215.38671875 C95.10551194 217.429203 101.07271968 219.33877964 107.140625 221.0390625 C113.61218373 222.85352668 119.93355559 224.95688799 126.25 227.25 C127.32338623 227.63913574 128.39677246 228.02827148 129.50268555 228.42919922 C171.61251695 243.90683053 171.61251695 243.90683053 181 261 C183.15968452 267.55664701 182.71273255 274.9091018 179.9609375 281.1953125 C175.27211557 290.00114881 167.18336368 294.16985985 157.98535156 297.19946289 C134.09997953 304.22143743 106.32213536 301.67108861 84.33422852 290.01367188 C82.54650572 289.02638396 80.77277863 288.01387679 79 287 C78.05769531 286.48308594 77.11539063 285.96617187 76.14453125 285.43359375 C63.10339898 278.01329058 51.73837774 267.40141193 41.91015625 256.1640625 C41.27980469 255.44992187 40.64945312 254.73578125 40 254 C39.52433594 253.38898438 39.04867187 252.77796875 38.55859375 252.1484375 C37.00751664 250.7420074 37.00751664 250.7420074 34.66734314 251.19284058 C31.47634466 252.15846231 30.103302 253.40709889 27.76391602 255.76611328 C26.96280899 256.56429474 26.16170197 257.3624762 25.33631897 258.18484497 C24.48412277 259.05454926 23.63192657 259.92425354 22.75390625 260.8203125 C21.86517319 261.71233368 20.97644012 262.60435486 20.06077576 263.52340698 C18.18078466 265.41382489 16.30492138 267.30742111 14.43530273 269.20800781 C12.05563196 271.62705298 9.6655012 274.03539013 7.27093601 276.43968391 C4.97008705 278.75058741 2.67435087 281.06654237 0.37890625 283.3828125 C-0.47126572 284.2403714 -1.32143768 285.0979303 -2.19737244 285.98147583 C-6.65973333 290.51505189 -10.90807036 295.13030086 -15 300 C-16.64631269 301.68677506 -18.31200265 303.35494058 -20 305 C-20.88300781 305.88300781 -21.76601562 306.76601563 -22.67578125 307.67578125 C-25.1171875 310.1171875 -27.55859375 312.55859375 -30 315 C-33.0879464 313.65860337 -34.83936497 312.31315034 -36.8828125 309.6484375 C-37.40512451 308.97055176 -37.92743652 308.29266602 -38.46557617 307.59423828 C-39.01318604 306.86188965 -39.5607959 306.12954102 -40.125 305.375 C-40.69903564 304.61300293 -41.27307129 303.85100586 -41.86450195 303.06591797 C-54.59991996 285.93549747 -65.47937184 267.13224717 -72.35742188 246.87792969 C-72.97992344 245.05867361 -73.63785561 243.25166084 -74.296875 241.4453125 C-93.31161949 187.80495305 -87.54190554 128.01759807 -63.50390625 77.01171875 C-53.10101682 55.7446052 -39.04813335 37.52898859 -22.59326172 20.63574219 C-21.27241101 19.27967419 -19.96455264 17.91096522 -18.66015625 16.5390625 C-14.19664107 11.920374 -9.33512544 7.89186908 -4.3203125 3.8828125 C-1.98610069 2.05512061 -1.98610069 2.05512061 0 0 Z " fill="#71B62A" transform="translate(133,44)"/>
<path d="M0 0 C4.41874515 1.57064401 6.82889475 5.06382048 9.625 8.625 C10.41124756 9.61729614 10.41124756 9.61729614 11.21337891 10.62963867 C16.31674064 17.19518221 20.70799628 24.1302275 24.95849609 31.26806641 C25.84967587 32.75002358 26.77503973 34.21133212 27.70703125 35.66796875 C32.37839805 43.02629587 35.72860673 50.94994666 39 59 C39.29551758 59.7233252 39.59103516 60.44665039 39.89550781 61.19189453 C46.78754266 78.30146519 52.07911098 96.61434792 54 115 C54.16435547 116.47146484 54.16435547 116.47146484 54.33203125 117.97265625 C57.51469318 152.89706645 53.28277837 187.14378674 41 220 C40.62488281 221.02222656 40.24976563 222.04445313 39.86328125 223.09765625 C30.37492947 247.3012764 15.52898315 268.66424058 -1.95703125 287.7109375 C-3.3597471 289.28262294 -4.70965129 290.90256621 -6.01171875 292.55859375 C-7.87848565 294.8507928 -9.77271505 296.75167617 -12 298.6875 C-12.66 299.26886719 -13.32 299.85023438 -14 300.44921875 C-15.92816864 301.94430264 -17.78346455 302.99563238 -20 304 C-18.65861569 301.16608949 -17.12586461 298.67861481 -15.3125 296.125 C0.99743415 271.87942552 6.81643931 241.65561018 1.34643555 213.01171875 C-0.66907315 203.29133951 -3.56093465 193.89370638 -8 185 C-8.62841797 183.72576172 -8.62841797 183.72576172 -9.26953125 182.42578125 C-23.80186956 154.36195438 -49.60310288 134.49772656 -77 120 C-78.16402344 119.38253906 -79.32804688 118.76507813 -80.52734375 118.12890625 C-100.72075093 107.74306453 -122.34143669 100.52521904 -144.01806641 93.92211914 C-147.89854918 92.72213687 -151.73654878 91.42528351 -155.5625 90.0625 C-156.6443457 89.67747314 -156.6443457 89.67747314 -157.74804688 89.28466797 C-163.92634781 87.06339548 -169.9978221 84.66434531 -176 82 C-176.66563965 81.70867187 -177.3312793 81.41734375 -178.01708984 81.1171875 C-190.69491396 75.53429248 -204.22094523 69.1814645 -210.4375 55.9375 C-211.85855067 48.51645761 -210.92734111 42.44730668 -206.78125 36.1484375 C-196.83069322 23.59967978 -180.6300514 19.36908454 -165.625 16.3125 C-134.68251853 13.6450447 -108.92793787 25.12103275 -85.64746094 44.57080078 C-80.01384157 49.45805741 -74.63493886 54.73940726 -70.125 60.6875 C-68.25145197 63.17303045 -68.25145197 63.17303045 -65.743927 63.48579407 C-61.75257198 62.77915115 -59.68869462 60.34702999 -56.97216797 57.53979492 C-56.39104248 56.95939957 -55.80991699 56.37900421 -55.21118164 55.78102112 C-53.2927616 53.85911748 -51.39266301 51.92010523 -49.4921875 49.98046875 C-48.16240044 48.64135284 -46.83150255 47.30333918 -45.49954224 45.96638489 C-41.9944754 42.44222493 -38.50467203 38.90331787 -35.01782227 35.36114502 C-31.4701206 31.76241255 -27.90834156 28.17767528 -24.34765625 24.59179688 C-18.59738669 18.7975385 -12.85605745 12.99459235 -7.12539673 7.18093872 C-4.75801048 4.77945911 -2.38970207 2.37930148 0 0 Z " fill="#A5C710" transform="translate(424,75)"/>
</svg>
